<svg xmlns="http://www.w3.org/2000/svg" version="1.1" xmlns:xlink="http://www.w3.org/1999/xlink" xmlns:svgjs="http://svgjs.dev/svgjs" width="1000" height="999" viewBox="0 0 1000 999"><g transform="matrix(1,0,0,1,-0.215743440233382,-0.21552769679306039)"><svg viewBox="0 0 343 343" data-background-color="#ffffff" preserveAspectRatio="xMidYMid meet" height="999" width="1000" xmlns="http://www.w3.org/2000/svg" xmlns:xlink="http://www.w3.org/1999/xlink"><g id="tight-bounds" transform="matrix(1,0,0,1,0.0740000000000407,0.07400000000001228)"><svg viewBox="0 0 342.85155851775386 342.85155851775386" height="342.85155851775386" width="342.85155851775386"><g><svg></svg></g><g><svg viewBox="0 0 342.85155851775386 342.85155851775386" height="342.85155851775386" width="342.85155851775386"><g><path d="M0 171.426c0-94.676 76.75-171.426 171.426-171.426 94.676 0 171.426 76.75 171.426 171.426 0 94.676-76.75 171.426-171.426 171.426-94.676 0-171.426-76.75-171.426-171.426zM171.426 337.085c91.491 0 165.66-74.168 165.659-165.659 0-91.491-74.168-165.66-165.659-165.66-91.491 0-165.66 74.168-165.66 165.66 0 91.491 74.168 165.66 165.66 165.659z" data-fill-palette-color="tertiary" fill="#ea3c12" stroke="transparent"></path><ellipse rx="164.56874808852186" ry="164.56874808852186" cx="171.42577925887693" cy="171.42577925887693" fill="#ea3c12" stroke="transparent" stroke-width="0" fill-opacity="1" data-fill-palette-color="tertiary"></ellipse></g><g transform="matrix(1,0,0,1,64.84655864529837,139.45607014448794)"><svg viewBox="0 0 213.1584412271571 63.93941822877798" height="63.93941822877798" width="213.1584412271571"><g><svg viewBox="0 0 213.1584412271571 63.93941822877798" height="63.93941822877798" width="213.1584412271571"><g><svg viewBox="0 0 213.1584412271571 63.93941822877798" height="63.93941822877798" width="213.1584412271571"><g><svg viewBox="0 0 213.1584412271571 63.93941822877798" height="63.93941822877798" width="213.1584412271571"><g id="textblocktransform"><svg viewBox="0 0 213.1584412271571 63.93941822877798" height="63.93941822877798" width="213.1584412271571" id="textblock"><g><svg viewBox="0 0 213.1584412271571 63.93941822877798" height="63.93941822877798" width="213.1584412271571"><g transform="matrix(1,0,0,1,0,0)"><svg width="213.1584412271571" viewBox="2.5 -37 131.33999633789062 39.400001525878906" height="63.93941822877798" data-palette-color="#ffffff"><path d="M7.8-31.65Q7.85-31.6 6.55-32.75L6.55-32.75Q5.65-33.55 5.2-33.9L5.2-33.9Q5.4-35.25 6.2-35.8 7-36.35 8.3-36.65L8.3-36.65Q9.65-37 11.2-37L11.2-37Q12.7-37 14.25-36.7L14.25-36.7Q18.7-35.9 22.1-34.85 25.5-33.8 28.45-31.9L28.45-31.9Q30.5-30.65 31.9-28.95L31.9-28.95Q33.95-26.3 33.95-23.55L33.95-23.55Q33.95-21.2 32.4-18.7L32.4-18.7Q26.5-9.35 20.25-3.95L20.25-3.95Q16.45-0.6 11.85 1.55L11.85 1.55Q10.15 2.4 8.3 2.4L8.3 2.4Q6.1 2.4 4.05 1.15L4.05 1.15Q3.3 0.65 2.9 0.13 2.5-0.4 2.5-1.1L2.5-1.1 2.55-1.55 2.9-4.15Q3.5-8.75 4-11L4-11 4.25-12.1Q5.75-18.6 6.5-22.58 7.25-26.55 7.6-30.75L7.6-30.75 7.8-31.65ZM14.4-32.25Q13.8-32.3 12.8-32.15L12.8-32.15 11.7-32Q12.9-31 13.45-30.25 14-29.5 14-28.65L14-28.65Q14-28.45 13.9-27.95L13.9-27.95Q13.25-25.05 12.15-20.8L12.15-20.8 10.35-13.6Q9.15-8.7 8.25-4.5L8.25-4.5Q8.1-3.95 8.08-3.28 8.05-2.6 8.05-2.3L8.05-2.3Q8.5-2.1 8.55-2.1L8.55-2.1 9.2-2.35Q16.7-6 22-12.55L22-12.55Q24.15-15.3 25.63-17.75 27.1-20.2 27.85-22.9L27.85-22.9Q28.05-23.55 28.05-24.45L28.05-24.45Q28.05-26 27.28-27.25 26.5-28.5 25.15-29.15L25.15-29.15Q20.15-31.4 14.4-32.25L14.4-32.25ZM54.2-2.55Q53.75-2.75 53.3-2.75L53.3-2.75Q52.85-2.75 52.52-2.53 52.2-2.3 51.8-1.85L51.8-1.85Q51.2-1.25 50.55-0.85L50.55-0.85Q49.95-0.5 48.35-0.2L48.35-0.2Q47.65-0.1 47.2-0.1L47.2-0.1Q45.1-0.1 42.82-1.03 40.55-1.95 39.6-3.25L39.6-3.25Q38.6-4.65 38.65-6.25L38.65-6.25Q38.7-8.65 40.65-11.05L40.65-11.05Q42.55-13.35 44.12-14.3 45.7-15.25 48.45-15.5L48.45-15.5Q49.05-15.5 50.17-15.7 51.3-15.9 51.3-16.25L51.3-16.25Q51.3-16.95 50.67-17.53 50.05-18.1 48.15-18.1L48.15-18.1Q47.45-18.1 46.05-18L46.05-18Q44.65-17.9 44.1-17.9L44.1-17.9Q42.4-17.9 41.65-18.45L41.65-18.45Q41.45-18.55 41.45-19.4L41.45-19.4Q41.45-20.9 42.5-21.3L42.5-21.3Q44.65-22.1 46.95-22.15L46.95-22.15Q49.85-22.15 52.32-20.88 54.8-19.6 55.95-17.7L55.95-17.7Q57.1-15.8 57.45-12.45L57.45-12.45Q57.85-8.7 57.85-2.9L57.85-2.9Q57.85-1.3 57.4-1.05L57.4-1.05Q57-0.8 56.65-0.8L56.65-0.8Q56.2-0.8 55.82-1.07 55.45-1.35 55-1.85L55-1.85Q54.55-2.4 54.2-2.55L54.2-2.55ZM46.3-3.15Q48.65-3.85 50.9-5.4L50.9-5.4Q51.4-5.75 51.8-6.3 52.2-6.85 52.3-7L52.3-7Q52.4-7.15 52.47-7.88 52.55-8.6 52.5-9.05L52.5-9.05Q52.45-9.2 52.32-9.85 52.2-10.5 51.95-11L51.95-11Q51.7-11.4 51.15-11.75 50.6-12.1 50.15-12.05L50.15-12.05Q49.2-12 48.1-11.35 47-10.7 46.05-9.6L46.05-9.6Q45.1-8.45 44.57-7.28 44.05-6.1 44.05-5.1L44.05-5.1Q44.15-3.75 44.8-3.3L44.8-3.3Q45.15-3.05 45.65-3.05L45.65-3.05Q46.05-3.05 46.3-3.15L46.3-3.15ZM71.15-18.85Q71.15-18.55 71.05-18.07 70.95-17.6 71-17.45L71-17.45Q74.45-18.2 76.85-18.2L76.85-18.2Q80.6-18.2 82.5-14.6L82.5-14.6Q84.05-11.55 84.05-7.85L84.05-7.85Q84.05-6.9 83.85-5.1L83.85-5.1Q83.7-3.9 82.9-3.18 82.1-2.45 81-2.45L81-2.45Q79.85-2.45 79.37-2.88 78.9-3.3 78.82-3.85 78.75-4.4 78.75-5.6L78.75-5.6 78.7-6.65Q78.6-9.65 78.3-11.85L78.3-11.85Q78.15-12.75 77.62-13.13 77.1-13.5 76.25-13.5L76.25-13.5Q75.45-13.5 74.35-13.25L74.35-13.25Q72.65-12.8 72.07-12.55 71.5-12.3 70.4-11.5L70.4-11.5Q70.05-11.25 69.9-10.5 69.75-9.75 69.75-9.65L69.75-9.65Q69.1-6.45 68.35-2L68.35-2Q68.3-1.8 68.15-1.05 68-0.3 67.57 0.03 67.15 0.35 66.35 0.25L66.35 0.25Q63.2-0.15 63.15-2.4L63.15-2.4Q63.1-5.3 63.6-9.25L63.6-9.25Q63.95-12.1 64.25-13.85L64.25-13.85Q64.35-14.65 64.52-15.8 64.7-16.95 64.85-18.45L64.85-18.45Q65-19.6 65.15-20.15 65.3-20.7 65.85-21.08 66.4-21.45 67.55-21.45L67.55-21.45Q69-21.45 69.95-20.8 70.9-20.15 71.15-18.95L71.15-18.95 71.15-18.85ZM93.69-23.3Q93.59-23 92.97-22.65 92.34-22.3 91.94-22L91.94-22 90.54-22.75Q88.49-23.85 87.74-24.5L87.74-24.5Q87.34-24.8 87.34-25.25L87.34-25.25Q87.34-25.55 87.57-25.78 87.79-26 88.24-26L88.24-26Q90.19-26 92.99-25L92.99-25Q93.29-24.95 93.54-24.33 93.79-23.7 93.69-23.3L93.69-23.3ZM89.19-14Q89.34-14.65 89.39-14.95 89.44-15.25 89.44-15.6L89.44-15.6Q89.44-16.3 89.87-16.7 90.29-17.1 91.49-17.1L91.49-17.1Q92.89-17.1 93.97-16.23 95.04-15.35 95.29-13.95L95.29-13.95Q95.44-13.25 95.49-12.4 95.54-11.55 95.54-11.3L95.54-11.3 96.24-2.75Q96.39-1.4 95.87-0.68 95.34 0.05 93.89 0.05L93.89 0.05Q92.64 0.05 91.77-0.65 90.89-1.35 90.69-2.45L90.69-2.45 89.39-13.05 89.19-14ZM109.59-7.8Q109.09-7.5 108.14-7.5L108.14-7.5Q107.79-7.5 107.29-7.55 106.79-7.6 106.44-7.55L106.44-7.55Q106.84-5.9 108.34-4.88 109.84-3.85 111.69-3.85L111.69-3.85Q113.29-3.85 114.54-4.55L114.54-4.55Q116.39-5.5 117.74-6.8L117.74-6.8Q118.69-7.75 119.54-7.75L119.54-7.75Q120.09-7.75 120.49-7.2L120.49-7.2Q120.89-6.55 120.89-5.6L120.89-5.6Q120.89-4.6 120.49-4.05L120.49-4.05Q119.19-2.05 117.12-1.3 115.04-0.55 112.29-0.55L112.29-0.55Q109.44-0.55 106.79-1.8 104.14-3.05 102.27-5.23 100.39-7.4 99.79-10.05L99.79-10.05Q99.39-11.6 99.39-13.1L99.39-13.1Q99.39-15.45 100.72-16.9 102.04-18.35 104.99-19.65L104.99-19.65Q107.69-20.8 109.99-20.8L109.99-20.8Q111.64-20.8 113.19-20.3L113.19-20.3Q117.99-18.8 117.99-16.2L117.99-16.2Q117.99-14.55 116.04-12.2L116.04-12.2Q115.09-11.1 113.79-10.25 112.49-9.4 111.27-8.72 110.04-8.05 109.59-7.8L109.59-7.8ZM111.69-17.05Q111.64-17.3 111.32-17.48 110.99-17.65 110.94-17.7L110.94-17.7Q109.59-17.8 108.19-16.93 106.79-16.05 105.87-14.7 104.94-13.35 104.94-12.1L104.94-12.1 104.99-11.7Q105.04-11.5 105.52-11.2 105.99-10.9 106.09-11L106.09-11Q109.64-13.65 111.44-15.25L111.44-15.25Q111.74-15.55 111.74-16.35L111.74-16.35Q111.74-16.85 111.69-17.05L111.69-17.05ZM129.64-2.3Q130.64-3.5 131.09-4.2L131.09-4.2Q131.64-4.95 132.24-4.95L132.24-4.95Q132.84-4.95 133.14-4.2L133.14-4.2Q133.84-2.2 133.84-1.05L133.84-1.05Q133.84-0.55 133.79-0.3L133.79-0.3Q133.59 0.7 132.66 1.1 131.74 1.5 130.49 1.4L130.49 1.4Q130.04 1.4 128.96 1.4 127.89 1.4 127.11 1.1 126.34 0.8 125.74 0.1L125.74 0.1Q124.44-1.45 124.44-2.9L124.44-2.9Q124.44-14.6 124.34-20.5L124.34-20.5 124.29-29.3Q124.29-31.05 123.94-32.5L123.94-32.5Q123.89-32.75 123.89-33.1L123.89-33.1Q123.89-34.95 126.39-34.95L126.39-34.95Q128.04-34.95 129.16-33.88 130.29-32.8 130.19-31.05L130.19-31.05Q130.04-28.4 129.79-23.1L129.79-23.1 129.49-17.1Q129.09-8.6 128.94-4.35L128.94-4.35Q128.89-3.85 128.99-3.25 129.09-2.65 129.14-2.5L129.14-2.5 129.64-2.3Z" opacity="1" transform="matrix(1,0,0,1,0,0)" fill="#ffffff" class="wordmark-text-0" data-fill-palette-color="quaternary" id="text-0"></path></svg></g></svg></g></svg></g></svg></g><g></g></svg></g></svg></g></svg></g></svg></g><defs></defs></svg><rect width="342.85155851775386" height="342.85155851775386" fill="none" stroke="none" visibility="hidden"></rect></g></svg></g></svg>